<svg xmlns="http://www.w3.org/2000/svg" width="47.631" height="43.91" viewBox="0 0 47.631 43.91">
  <g id="XMLID_996_" transform="translate(0 -20)">
    <g id="XMLID_41_" transform="translate(0 20)">
      <path id="XMLID_4218_" d="M310.107,127.777a.93.93,0,1,0,1.316-1.316l-.013-.013a.93.93,0,0,0-1.316,1.316Z" transform="translate(-281 -116.299)" fill="#a71c45"/>
      <path id="XMLID_4221_" d="M44.116,40.28l3.243-3.243A.93.93,0,0,0,46.7,35.45H39.979A20.281,20.281,0,1,0,5.94,54.621,20.426,20.426,0,0,0,9.668,57.57l-2.8,4.951a.93.93,0,0,0,.81,1.389h4.791a.93.93,0,0,0,.81-.472l1.982-3.5a20.526,20.526,0,0,0,10.046,0l1.982,3.5a.93.93,0,0,0,.81.472h4.791a.93.93,0,0,0,.81-1.388l-2.8-4.951a20.43,20.43,0,0,0,3.728-2.949,20.212,20.212,0,0,0,5.358-9.51H46.7a.93.93,0,0,0,.658-1.588Zm-1.7-.93H35.922l2.04-2.04h6.492Zm-30.491,22.7H9.27L11.3,58.472a20,20,0,0,0,2.138.909Zm19.367,0H28.637l-1.51-2.668a20,20,0,0,0,2.138-.909Zm2.015-8.744a18.5,18.5,0,0,1-4.079,3.085c-.018.009-.037.017-.055.027l-.032.021a18.179,18.179,0,0,1-3.567,1.494.921.921,0,0,0-.144.042,18.6,18.6,0,0,1-10.295,0,.924.924,0,0,0-.145-.042,18.177,18.177,0,0,1-3.567-1.494l-.032-.021c-.018-.01-.036-.019-.055-.027a18.5,18.5,0,0,1-4.079-3.085,18.42,18.42,0,1,1,30.8-17.855h-.482a.93.93,0,0,0-.658.272L34.45,38.191a14.333,14.333,0,0,0-1.622-4.832.93.93,0,0,0-1.629.9,12.354,12.354,0,0,1,1.5,5.091H28.6a8.375,8.375,0,1,0,0,1.86h4.1a12.454,12.454,0,1,1-6.4-11.849.93.93,0,1,0,.9-1.629,14.43,14.43,0,0,0-8.835-1.651A14.327,14.327,0,1,0,34.453,42.373l2.466,2.466a.93.93,0,0,0,.658.272h.482A18.36,18.36,0,0,1,33.305,53.305ZM23.319,38.526a.93.93,0,0,0-1.271-.34l-2.233,1.289a.93.93,0,0,0,0,1.611l2.233,1.289a.929.929,0,0,0,1.322-1.164h3.356a6.462,6.462,0,0,1-1.841,3.674h0a6.511,6.511,0,1,1,1.841-5.535H23.37A.928.928,0,0,0,23.319,38.526ZM37.962,43.25l-2.04-2.04h6.492l2.04,2.04Z" transform="translate(0 -20)" fill="#a71c45"/>
    </g>
  </g>
</svg>
